<svg id="visual" viewBox="0 0 900 900" width="900" height="900" xmlns="http://www.w3.org/2000/svg" xmlns:xlink="http://www.w3.org/1999/xlink" version="1.1"><rect x="0" y="0" width="900" height="900" fill="#02131f"></rect><path d="M0 549L21.5 560.3C43 571.7 86 594.3 128.8 587.7C171.7 581 214.3 545 257.2 537C300 529 343 549 385.8 525C428.7 501 471.3 433 514.2 407.2C557 381.3 600 397.7 642.8 398.5C685.7 399.3 728.3 384.7 771.2 413.5C814 442.3 857 514.7 878.5 550.8L900 587L900 901L878.5 901C857 901 814 901 771.2 901C728.3 901 685.7 901 642.8 901C600 901 557 901 514.2 901C471.3 901 428.7 901 385.8 901C343 901 300 901 257.2 901C214.3 901 171.7 901 128.8 901C86 901 43 901 21.5 901L0 901Z" fill="#888277"></path><path d="M0 579L21.5 552C43 525 86 471 128.8 484.8C171.7 498.7 214.3 580.3 257.2 599.2C300 618 343 574 385.8 563.7C428.7 553.3 471.3 576.7 514.2 567.5C557 558.3 600 516.7 642.8 495.7C685.7 474.7 728.3 474.3 771.2 476.3C814 478.3 857 482.7 878.5 484.8L900 487L900 901L878.5 901C857 901 814 901 771.2 901C728.3 901 685.7 901 642.8 901C600 901 557 901 514.2 901C471.3 901 428.7 901 385.8 901C343 901 300 901 257.2 901C214.3 901 171.7 901 128.8 901C86 901 43 901 21.5 901L0 901Z" fill="#727063"></path><path d="M0 479L21.5 507.3C43 535.7 86 592.3 128.8 600.2C171.7 608 214.3 567 257.2 541.3C300 515.7 343 505.3 385.8 507.2C428.7 509 471.3 523 514.2 553C557 583 600 629 642.8 623C685.7 617 728.3 559 771.2 533.8C814 508.7 857 516.3 878.5 520.2L900 524L900 901L878.5 901C857 901 814 901 771.2 901C728.3 901 685.7 901 642.8 901C600 901 557 901 514.2 901C471.3 901 428.7 901 385.8 901C343 901 300 901 257.2 901C214.3 901 171.7 901 128.8 901C86 901 43 901 21.5 901L0 901Z" fill="#5b5e51"></path><path d="M0 710L21.5 698.2C43 686.3 86 662.7 128.8 642.8C171.7 623 214.3 607 257.2 610.3C300 613.7 343 636.3 385.8 633C428.7 629.7 471.3 600.3 514.2 610.2C557 620 600 669 642.8 690.8C685.7 712.7 728.3 707.3 771.2 695.5C814 683.7 857 665.3 878.5 656.2L900 647L900 901L878.5 901C857 901 814 901 771.2 901C728.3 901 685.7 901 642.8 901C600 901 557 901 514.2 901C471.3 901 428.7 901 385.8 901C343 901 300 901 257.2 901C214.3 901 171.7 901 128.8 901C86 901 43 901 21.5 901L0 901Z" fill="#454d40"></path><path d="M0 638L21.5 643.7C43 649.3 86 660.7 128.8 686C171.7 711.3 214.3 750.7 257.2 754.5C300 758.3 343 726.7 385.8 725.2C428.7 723.7 471.3 752.3 514.2 747.3C557 742.3 600 703.7 642.8 685.7C685.7 667.7 728.3 670.3 771.2 668.5C814 666.7 857 660.3 878.5 657.2L900 654L900 901L878.5 901C857 901 814 901 771.2 901C728.3 901 685.7 901 642.8 901C600 901 557 901 514.2 901C471.3 901 428.7 901 385.8 901C343 901 300 901 257.2 901C214.3 901 171.7 901 128.8 901C86 901 43 901 21.5 901L0 901Z" fill="#2f3d31"></path><path d="M0 734L21.5 744C43 754 86 774 128.8 770.3C171.7 766.7 214.3 739.3 257.2 738.8C300 738.3 343 764.7 385.8 779C428.7 793.3 471.3 795.7 514.2 787.7C557 779.7 600 761.3 642.8 765.3C685.7 769.3 728.3 795.7 771.2 788C814 780.3 857 738.7 878.5 717.8L900 697L900 901L878.5 901C857 901 814 901 771.2 901C728.3 901 685.7 901 642.8 901C600 901 557 901 514.2 901C471.3 901 428.7 901 385.8 901C343 901 300 901 257.2 901C214.3 901 171.7 901 128.8 901C86 901 43 901 21.5 901L0 901Z" fill="#1a2d24"></path><path d="M0 807L21.5 819.7C43 832.3 86 857.7 128.8 852C171.7 846.3 214.3 809.7 257.2 804.7C300 799.7 343 826.3 385.8 831C428.7 835.7 471.3 818.3 514.2 807.7C557 797 600 793 642.8 794.2C685.7 795.3 728.3 801.7 771.2 817.3C814 833 857 858 878.5 870.5L900 883L900 901L878.5 901C857 901 814 901 771.2 901C728.3 901 685.7 901 642.8 901C600 901 557 901 514.2 901C471.3 901 428.7 901 385.8 901C343 901 300 901 257.2 901C214.3 901 171.7 901 128.8 901C86 901 43 901 21.5 901L0 901Z" fill="#021e18"></path></svg>