<svg id="visual" viewBox="0 0 900 600" width="900" height="600" xmlns="http://www.w3.org/2000/svg" xmlns:xlink="http://www.w3.org/1999/xlink" version="1.1"><rect x="0" y="0" width="900" height="600" fill="#02131f"></rect><path d="M0 365L21.5 372.7C43 380.3 86 395.7 128.8 391.3C171.7 387 214.3 363 257.2 357.7C300 352.3 343 365.7 385.8 349.7C428.7 333.7 471.3 288.3 514.2 271.2C557 254 600 265 642.8 265.7C685.7 266.3 728.3 256.7 771.2 275.8C814 295 857 343 878.5 367L900 391L900 601L878.5 601C857 601 814 601 771.2 601C728.3 601 685.7 601 642.8 601C600 601 557 601 514.2 601C471.3 601 428.7 601 385.8 601C343 601 300 601 257.2 601C214.3 601 171.7 601 128.8 601C86 601 43 601 21.5 601L0 601Z" fill="#888277"></path><path d="M0 386L21.5 368C43 350 86 314 128.8 323.2C171.7 332.3 214.3 386.7 257.2 399.2C300 411.7 343 382.3 385.8 375.5C428.7 368.7 471.3 384.3 514.2 378.2C557 372 600 344 642.8 330C685.7 316 728.3 316 771.2 317.3C814 318.7 857 321.3 878.5 322.7L900 324L900 601L878.5 601C857 601 814 601 771.2 601C728.3 601 685.7 601 642.8 601C600 601 557 601 514.2 601C471.3 601 428.7 601 385.8 601C343 601 300 601 257.2 601C214.3 601 171.7 601 128.8 601C86 601 43 601 21.5 601L0 601Z" fill="#727063"></path><path d="M0 319L21.5 337.8C43 356.7 86 394.3 128.8 399.7C171.7 405 214.3 378 257.2 361C300 344 343 337 385.8 338.2C428.7 339.3 471.3 348.7 514.2 368.7C557 388.7 600 419.3 642.8 415.3C685.7 411.3 728.3 372.7 771.2 355.8C814 339 857 344 878.5 346.5L900 349L900 601L878.5 601C857 601 814 601 771.2 601C728.3 601 685.7 601 642.8 601C600 601 557 601 514.2 601C471.3 601 428.7 601 385.8 601C343 601 300 601 257.2 601C214.3 601 171.7 601 128.8 601C86 601 43 601 21.5 601L0 601Z" fill="#5b5e51"></path><path d="M0 473L21.5 465.2C43 457.3 86 441.7 128.8 428.3C171.7 415 214.3 404 257.2 406.2C300 408.3 343 423.7 385.8 421.5C428.7 419.3 471.3 399.7 514.2 406.2C557 412.7 600 445.3 642.8 460C685.7 474.7 728.3 471.3 771.2 463.5C814 455.7 857 443.3 878.5 437.2L900 431L900 601L878.5 601C857 601 814 601 771.2 601C728.3 601 685.7 601 642.8 601C600 601 557 601 514.2 601C471.3 601 428.7 601 385.8 601C343 601 300 601 257.2 601C214.3 601 171.7 601 128.8 601C86 601 43 601 21.5 601L0 601Z" fill="#454d40"></path><path d="M0 425L21.5 428.8C43 432.7 86 440.3 128.8 457.2C171.7 474 214.3 500 257.2 502.5C300 505 343 484 385.8 483C428.7 482 471.3 501 514.2 497.7C557 494.3 600 468.7 642.8 456.7C685.7 444.7 728.3 446.3 771.2 445.2C814 444 857 440 878.5 438L900 436L900 601L878.5 601C857 601 814 601 771.2 601C728.3 601 685.7 601 642.8 601C600 601 557 601 514.2 601C471.3 601 428.7 601 385.8 601C343 601 300 601 257.2 601C214.3 601 171.7 601 128.8 601C86 601 43 601 21.5 601L0 601Z" fill="#2f3d31"></path><path d="M0 489L21.5 495.7C43 502.3 86 515.7 128.8 513.3C171.7 511 214.3 493 257.2 492.7C300 492.3 343 509.7 385.8 519.2C428.7 528.7 471.3 530.3 514.2 525C557 519.7 600 507.3 642.8 510C685.7 512.7 728.3 530.3 771.2 525.2C814 520 857 492 878.5 478L900 464L900 601L878.5 601C857 601 814 601 771.2 601C728.3 601 685.7 601 642.8 601C600 601 557 601 514.2 601C471.3 601 428.7 601 385.8 601C343 601 300 601 257.2 601C214.3 601 171.7 601 128.8 601C86 601 43 601 21.5 601L0 601Z" fill="#1a2d24"></path><path d="M0 537L21.5 545.5C43 554 86 571 128.8 567.3C171.7 563.7 214.3 539.3 257.2 536C300 532.7 343 550.3 385.8 553.5C428.7 556.7 471.3 545.3 514.2 538.3C557 531.3 600 528.7 642.8 529.5C685.7 530.3 728.3 534.7 771.2 545C814 555.3 857 571.7 878.5 579.8L900 588L900 601L878.5 601C857 601 814 601 771.2 601C728.3 601 685.7 601 642.8 601C600 601 557 601 514.2 601C471.3 601 428.7 601 385.8 601C343 601 300 601 257.2 601C214.3 601 171.7 601 128.8 601C86 601 43 601 21.5 601L0 601Z" fill="#021e18"></path></svg>