<svg id="visual" viewBox="0 0 675 900" width="675" height="900" xmlns="http://www.w3.org/2000/svg" xmlns:xlink="http://www.w3.org/1999/xlink" version="1.1"><rect x="0" y="0" width="675" height="900" fill="#02131f"></rect><path d="M0 549L16 560.3C32 571.7 64 594.3 96.2 587.7C128.3 581 160.7 545 192.8 537C225 529 257 549 289.2 525C321.3 501 353.7 433 385.8 407.2C418 381.3 450 397.7 482.2 398.5C514.3 399.3 546.7 384.7 578.8 413.5C611 442.3 643 514.7 659 550.8L675 587L675 901L659 901C643 901 611 901 578.8 901C546.7 901 514.3 901 482.2 901C450 901 418 901 385.8 901C353.7 901 321.3 901 289.2 901C257 901 225 901 192.8 901C160.7 901 128.3 901 96.2 901C64 901 32 901 16 901L0 901Z" fill="#888277"></path><path d="M0 579L16 552C32 525 64 471 96.2 484.8C128.3 498.7 160.7 580.3 192.8 599.2C225 618 257 574 289.2 563.7C321.3 553.3 353.7 576.7 385.8 567.5C418 558.3 450 516.7 482.2 495.7C514.3 474.7 546.7 474.3 578.8 476.3C611 478.3 643 482.7 659 484.8L675 487L675 901L659 901C643 901 611 901 578.8 901C546.7 901 514.3 901 482.2 901C450 901 418 901 385.8 901C353.7 901 321.3 901 289.2 901C257 901 225 901 192.8 901C160.7 901 128.3 901 96.2 901C64 901 32 901 16 901L0 901Z" fill="#727063"></path><path d="M0 479L16 507.3C32 535.7 64 592.3 96.2 600.2C128.3 608 160.7 567 192.8 541.3C225 515.7 257 505.3 289.2 507.2C321.3 509 353.7 523 385.8 553C418 583 450 629 482.2 623C514.3 617 546.7 559 578.8 533.8C611 508.7 643 516.3 659 520.2L675 524L675 901L659 901C643 901 611 901 578.8 901C546.7 901 514.3 901 482.2 901C450 901 418 901 385.8 901C353.7 901 321.3 901 289.2 901C257 901 225 901 192.8 901C160.7 901 128.3 901 96.2 901C64 901 32 901 16 901L0 901Z" fill="#5b5e51"></path><path d="M0 710L16 698.2C32 686.3 64 662.7 96.2 642.8C128.3 623 160.7 607 192.8 610.3C225 613.7 257 636.3 289.2 633C321.3 629.7 353.7 600.3 385.8 610.2C418 620 450 669 482.2 690.8C514.3 712.7 546.7 707.3 578.8 695.5C611 683.7 643 665.3 659 656.2L675 647L675 901L659 901C643 901 611 901 578.8 901C546.7 901 514.3 901 482.2 901C450 901 418 901 385.8 901C353.7 901 321.3 901 289.2 901C257 901 225 901 192.8 901C160.7 901 128.3 901 96.2 901C64 901 32 901 16 901L0 901Z" fill="#454d40"></path><path d="M0 638L16 643.7C32 649.3 64 660.7 96.2 686C128.3 711.3 160.7 750.7 192.8 754.5C225 758.3 257 726.7 289.2 725.2C321.3 723.7 353.7 752.3 385.8 747.3C418 742.3 450 703.7 482.2 685.7C514.3 667.7 546.7 670.3 578.8 668.5C611 666.7 643 660.3 659 657.2L675 654L675 901L659 901C643 901 611 901 578.8 901C546.7 901 514.3 901 482.2 901C450 901 418 901 385.8 901C353.7 901 321.3 901 289.2 901C257 901 225 901 192.8 901C160.7 901 128.3 901 96.2 901C64 901 32 901 16 901L0 901Z" fill="#2f3d31"></path><path d="M0 734L16 744C32 754 64 774 96.2 770.3C128.3 766.7 160.7 739.3 192.8 738.8C225 738.3 257 764.7 289.2 779C321.3 793.3 353.7 795.7 385.8 787.7C418 779.7 450 761.3 482.2 765.3C514.3 769.3 546.7 795.7 578.8 788C611 780.3 643 738.7 659 717.8L675 697L675 901L659 901C643 901 611 901 578.8 901C546.7 901 514.3 901 482.2 901C450 901 418 901 385.8 901C353.7 901 321.3 901 289.2 901C257 901 225 901 192.8 901C160.7 901 128.3 901 96.2 901C64 901 32 901 16 901L0 901Z" fill="#1a2d24"></path><path d="M0 807L16 819.7C32 832.3 64 857.7 96.2 852C128.3 846.3 160.7 809.7 192.8 804.7C225 799.7 257 826.3 289.2 831C321.3 835.7 353.7 818.3 385.8 807.7C418 797 450 793 482.2 794.2C514.3 795.3 546.7 801.7 578.8 817.3C611 833 643 858 659 870.5L675 883L675 901L659 901C643 901 611 901 578.8 901C546.7 901 514.3 901 482.2 901C450 901 418 901 385.8 901C353.7 901 321.3 901 289.2 901C257 901 225 901 192.8 901C160.7 901 128.3 901 96.2 901C64 901 32 901 16 901L0 901Z" fill="#021e18"></path></svg>